<?xml version="1.0" standalone="no"?>
<!DOCTYPE svg PUBLIC "-//W3C//DTD SVG 20010904//EN"
 "http://www.w3.org/TR/2001/REC-SVG-20010904/DTD/svg10.dtd">
<svg version="1.0" xmlns="http://www.w3.org/2000/svg"
 width="225.000000pt" height="225.000000pt" viewBox="0 0 225.000000 225.000000"
 preserveAspectRatio="xMidYMid meet">

<g transform="translate(0.000000,225.000000) scale(0.100000,-0.100000)"
fill="#000000" stroke="none">
<path d="M1123 1665 c-165 -45 -249 -120 -278 -249 -15 -71 -5 -134 28 -162
32 -27 97 -40 127 -24 18 10 20 17 14 43 -4 18 -7 61 -6 97 3 72 35 153 64
158 14 3 15 -2 8 -35 -71 -321 -150 -696 -150 -708 0 -12 17 -15 98 -15 53 0
103 4 111 9 12 8 45 139 91 364 l11 57 64 0 c101 0 125 20 125 106 0 26 -4 27
-103 26 -54 -1 -57 0 -52 21 3 12 11 51 18 87 l13 65 77 -4 c68 -2 82 0 121
23 33 20 48 36 60 68 31 85 46 78 -184 83 -156 3 -217 0 -257 -10z m265 -5
c64 -7 115 -7 142 -1 l41 9 -6 -31 c-20 -97 -92 -128 -225 -98 l-38 8 -21 -99
c-12 -54 -21 -105 -21 -113 0 -12 17 -15 81 -15 l81 0 -7 -37 c-4 -21 -9 -41
-11 -45 -3 -5 -42 -8 -88 -8 l-83 0 -18 -87 c-10 -49 -30 -144 -45 -213 l-27
-125 -87 -3 c-80 -3 -87 -1 -82 15 12 40 156 719 156 736 0 36 -79 -4 -110
-55 -23 -39 -37 -167 -22 -214 9 -31 8 -34 -10 -34 -38 0 -86 31 -97 62 -38
107 33 255 147 308 100 47 184 57 350 40z"/>
<path d="M790 1460 c-6 -12 -13 -47 -16 -78 -4 -60 2 -48 24 48 12 51 9 62 -8
30z"/>
<path d="M1335 1470 c11 -5 40 -8 65 -8 41 0 42 1 15 8 -16 4 -46 8 -65 8 -28
1 -31 -1 -15 -8z"/>
<path d="M807 1314 c-3 -3 -3 -13 -1 -22 4 -13 2 -12 -6 2 -9 14 -14 15 -20 6
-10 -16 4 -66 18 -63 7 2 9 -4 5 -13 -5 -13 -1 -15 18 -9 16 4 20 3 10 -3 -19
-13 -2 -22 56 -27 26 -3 50 -10 51 -15 2 -6 9 -10 15 -10 5 0 7 3 3 7 -3 4 4
13 16 20 22 12 22 12 -10 13 -39 0 -92 21 -111 43 -7 9 -17 15 -21 12 -5 -3
-12 0 -16 6 -4 8 -3 9 5 5 9 -6 10 0 5 21 -8 33 -9 35 -17 27z"/>
<path d="M1250 1167 c0 -10 14 -12 61 -6 83 10 86 19 6 19 -49 0 -67 -4 -67
-13z"/>
<path d="M941 1114 c0 -11 3 -14 6 -6 3 7 2 16 -1 19 -3 4 -6 -2 -5 -13z"/>
<path d="M926 1055 c-3 -9 -6 -26 -5 -38 1 -14 4 -9 9 13 9 37 7 52 -4 25z"/>
<path d="M901 924 c0 -11 3 -14 6 -6 3 7 2 16 -1 19 -3 4 -6 -2 -5 -13z"/>
<path d="M881 854 c0 -11 3 -14 6 -6 3 7 2 16 -1 19 -3 4 -6 -2 -5 -13z"/>
<path d="M906 741 c-4 -5 -13 -8 -21 -4 -11 4 -15 -2 -15 -21 0 -14 6 -26 13
-27 6 0 41 -3 76 -5 67 -6 111 7 111 32 0 7 8 15 18 17 9 3 -13 5 -49 6 -37 0
-80 4 -97 7 -16 3 -32 1 -36 -5z"/>
</g>
</svg>
